# xmcd
#
# Track frame offsets:
#	150
#	9298
#	13991
#	25803
#	34966
#	39728
#	47606
#	50857
#	59605
#	69638
#	76783
#	80560
#	83407
#	88052
#	93858
#	97906
#	102612
#	105035
#	115439
#	125755
#	130609
#	141188
#	150442
#	155116
#	159883
#	165493
#	171068
#	177977
#	184158
#	188993
#	193765
#	202254
#	206954
#	213182
#	217868
#	222554
#	227233
#	231911
#	236677
#	241452
#	246266
#	251019
#	255705
#	260400
#	262851
#	265285
#	267731
#	270160
#	272691
#	275099
#	277517
#	279964
#	282393
#	284825
#	287332
#	289778
#	292328
#	294719
#	297151
#	299611
#	302051
#	304501
#	306915
#	309391
#	311810
#	314290
#	316727
#	319136
#	320131
#	320928
#	322777
#	324805
#	325711
#	327463
#	328730
#
# Disc length: 4399 seconds
#
# Revision: 1
# Processed by: cddbd v1.5PL3 Copyright (c) Steve Scherf et al.
# Submitted via: dBpowerAMP V4.0
#
DISCID=83112d4b
DTITLE=John Devereaux - Screenplay 3 - True Life
DYEAR=1900
DGENRE=New Age
TTITLE0=Imagination (a)
TTITLE1=Imagination (b)
TTITLE2=Anxious Hours
TTITLE3=Missing
TTITLE4=Vigil
TTITLE5=True Life (a)
TTITLE6=True Life (b)
TTITLE7=The Gentle Rain
TTITLE8=Witness
TTITLE9=Ghost Story (a)
TTITLE10=Ghost Story (b)
TTITLE11=Ghost Story (c)
TTITLE12=Ghost Story (d)
TTITLE13=Remember (a)
TTITLE14=Remember (b)
TTITLE15=Under Suspicion (a)
TTITLE16=Under Suspicion (b)
TTITLE17=Breach of Promise (a)
TTITLE18=Breach of Promise (b)
TTITLE19=Breach of Promise (c)
TTITLE20=Impressions (a)
TTITLE21=Impressions (b)
TTITLE22=Impressions (c)
TTITLE23=Impressions (d)
TTITLE24=Surveillance (a)
TTITLE25=Surveillance (b)
TTITLE26=Tragedy
TTITLE27=Dressed to Kill
TTITLE28=Personal Threat (a)
TTITLE29=Personal Threat (b)
TTITLE30=Passing Hours (a)
TTITLE31=Passing Hours (b)
TTITLE32=Time
TTITLE33=Imagination (a) 60
TTITLE34=Anxious Hours 60
TTITLE35=Missing 60
TTITLE36=True Life (a) 60
TTITLE37=The Gentle Rain 60
TTITLE38=Witness 60
TTITLE39=Breach of Promise (a) 60
TTITLE40=Breach of Promise (b) 60
TTITLE41=Impressions (a) 60
TTITLE42=Passing Hours (a) 60
TTITLE43=Imagination (a) 30
TTITLE44=Imagination (b) 30
TTITLE45=Anxious Hours 30
TTITLE46=Missing 30
TTITLE47=Vigil 30
TTITLE48=True Life (a) 30
TTITLE49=The Gentle Rain 30
TTITLE50=Witness 30
TTITLE51=Remember (a) 30
TTITLE52=Under Suspicion (a) 30
TTITLE53=Breach of Promise (a) 30
TTITLE54=Breach of Promise (b) 30
TTITLE55=Breach of Promise (c) 30
TTITLE56=Impressions (a) 30
TTITLE57=Impressions (b) 30
TTITLE58=Impressions (c) 30
TTITLE59=Impressions (d) 30
TTITLE60=Surveillance (a) 30
TTITLE61=Tragedy 30
TTITLE62=Dressed to Kill 30
TTITLE63=Personal Threat (a) 30
TTITLE64=Personal Threat (b) 30
TTITLE65=Passing Hours (a) 30
TTITLE66=Passing Hours (b) 30
TTITLE67=Imagination (a) Link
TTITLE68=Anxious Hours Link
TTITLE69=Vigil Link
TTITLE70=Witness Link
TTITLE71=Ghost Story (d) Link 1
TTITLE72=Ghost Story (d) Link 2
TTITLE73=Under Suspicion (a) Link
TTITLE74=Passing Hours (a) Link
EXTD=
EXTT0=
EXTT1=
EXTT2=
EXTT3=
EXTT4=
EXTT5=
EXTT6=
EXTT7=
EXTT8=
EXTT9=
EXTT10=
EXTT11=
EXTT12=
EXTT13=
EXTT14=
EXTT15=
EXTT16=
EXTT17=
EXTT18=
EXTT19=
EXTT20=
EXTT21=
EXTT22=
EXTT23=
EXTT24=
EXTT25=
EXTT26=
EXTT27=
EXTT28=
EXTT29=
EXTT30=
EXTT31=
EXTT32=
EXTT33=
EXTT34=
EXTT35=
EXTT36=
EXTT37=
EXTT38=
EXTT39=
EXTT40=
EXTT41=
EXTT42=
EXTT43=
EXTT44=
EXTT45=
EXTT46=
EXTT47=
EXTT48=
EXTT49=
EXTT50=
EXTT51=
EXTT52=
EXTT53=
EXTT54=
EXTT55=
EXTT56=
EXTT57=
EXTT58=
EXTT59=
EXTT60=
EXTT61=
EXTT62=
EXTT63=
EXTT64=
EXTT65=
EXTT66=
EXTT67=
EXTT68=
EXTT69=
EXTT70=
EXTT71=
EXTT72=
EXTT73=
EXTT74=
PLAYORDER=
